<?xml version="1.0" encoding="UTF-8" standalone="no" ?>
<!DOCTYPE svg PUBLIC "-//W3C//DTD SVG 1.1//EN" "http://www.w3.org/Graphics/SVG/1.1/DTD/svg11.dtd">
<svg xmlns="http://www.w3.org/2000/svg" xmlns:xlink="http://www.w3.org/1999/xlink" version="1.1" width="300" height="100" viewBox="0 0 300 100" xml:space="preserve">
<desc>Created with Fabric.js 4.6.0</desc>
<defs>
</defs>
<g transform="matrix(1.58 0 0 1.58 192.35 50)" style="" id="IrCSZu7M8YDGAkb-N4YP5"  >
		<text xml:space="preserve" font-family="Bungee" font-size="20" font-style="normal" font-weight="normal" line-height="1" style="stroke: none; stroke-width: 1; stroke-dasharray: none; stroke-linecap: butt; stroke-dashoffset: 0; stroke-linejoin: miter; stroke-miterlimit: 4; fill: rgb(0,0,0); fill-rule: nonzero; opacity: 1; white-space: pre;" ><tspan x="-55.46" y="-5.02" >RECURSOS</tspan><tspan x="-52.24" y="17.58" >HUMANOS</tspan></text>
</g>
<g transform="matrix(1 0 0 1 23.44 15.45)" id="ZD1m-OSIjn1C5aaV-f8GM"  >
<path style="stroke: rgb(0,0,0); stroke-width: 1; stroke-dasharray: none; stroke-linecap: butt; stroke-dashoffset: 0; stroke-linejoin: miter; stroke-miterlimit: 4; fill: rgb(255,255,255); fill-rule: nonzero; opacity: 1;" vector-effect="non-scaling-stroke"  transform=" translate(0, 0)" d="M 0 0" stroke-linecap="round" />
</g>
<g transform="matrix(1 0 0 1 32.44 22.6)" id="6qpYS1BJ7_1K0iMWv4Ey7"  >
<path style="stroke: rgb(0,0,0); stroke-width: 1; stroke-dasharray: none; stroke-linecap: butt; stroke-dashoffset: 0; stroke-linejoin: miter; stroke-miterlimit: 4; fill: rgb(255,255,255); fill-rule: nonzero; opacity: 1;" vector-effect="non-scaling-stroke"  transform=" translate(0, 0)" d="M 0 0" stroke-linecap="round" />
</g>
<g transform="matrix(0.46 0 0 0.46 37.74 66.57)" id="hDLnhL9m2CGFuqfP_7qEn"  >
<path style="stroke: rgb(51,51,51); stroke-width: 4; stroke-dasharray: none; stroke-linecap: butt; stroke-dashoffset: 0; stroke-linejoin: miter; stroke-miterlimit: 4; fill: rgb(255,255,255); fill-rule: nonzero; opacity: 1;" vector-effect="non-scaling-stroke"  transform=" translate(0, 0)" d="M -36.06322 -36.06322 L 36.06321 -36.06322 L 36.06321 36.06321 L -36.06322 36.06321 z" stroke-linecap="round" />
</g>
<g transform="matrix(0.46 0 0 0.46 71.35 33.54)" id="s1DYpq53pv_XlKeaOJp1t"  >
<path style="stroke: rgb(51,51,51); stroke-width: 4; stroke-dasharray: none; stroke-linecap: butt; stroke-dashoffset: 0; stroke-linejoin: miter; stroke-miterlimit: 4; fill: rgb(255,255,255); fill-rule: nonzero; opacity: 1;" vector-effect="non-scaling-stroke"  transform=" translate(0, 0)" d="M -36.06322 -36.06322 L 36.06321 -36.06322 L 36.06321 36.06321 L -36.06322 36.06321 z" stroke-linecap="round" />
</g>
<g transform="matrix(1.19 0 0 1.14 36.01 32.01)" id="fg1Q-ELnCx_9FnWxAJcc1"  >
<path style="stroke: rgb(255,255,255); stroke-width: 1; stroke-dasharray: none; stroke-linecap: butt; stroke-dashoffset: 0; stroke-linejoin: miter; stroke-miterlimit: 4; fill: rgb(255,255,255); fill-rule: nonzero; opacity: 1;" vector-effect="non-scaling-stroke"  transform=" translate(0, 0)" d="M -13.61386 -13.61386 L 13.61386 -13.61386 L 13.61386 13.61386 L -13.61386 13.61386 z" stroke-linecap="round" />
</g>
<g transform="matrix(0.1 0 0 0.1 71.35 27.6)" id="_7yqJNHs7Rh04_W6xbW6C"  >
<path style="stroke: rgb(87,204,153); stroke-width: 1; stroke-dasharray: none; stroke-linecap: butt; stroke-dashoffset: 0; stroke-linejoin: miter; stroke-miterlimit: 4; fill: rgb(87,204,153); fill-rule: nonzero; opacity: 1;" vector-effect="non-scaling-stroke"  transform=" translate(0, 0)" d="M 0 -50 C 27.6 -50 50 -27.6 50 0 C 50 27.6 27.6 50 0 50 C -27.6 50 -50 27.6 -50 0 C -50 -27.6 -27.6 -50 0 -50 z" stroke-linecap="round" />
</g>
<g transform="matrix(0.1 0 0 0.1 37.74 27.36)" id="tBcRoQgftpxYHSjoJCuNk"  >
<path style="stroke: rgb(34,87,122); stroke-width: 1; stroke-dasharray: none; stroke-linecap: butt; stroke-dashoffset: 0; stroke-linejoin: miter; stroke-miterlimit: 4; fill: rgb(34,87,122); fill-rule: nonzero; opacity: 1;" vector-effect="non-scaling-stroke"  transform=" translate(0, 0)" d="M 0 -50 C 27.6 -50 50 -27.6 50 0 C 50 27.6 27.6 50 0 50 C -27.6 50 -50 27.6 -50 0 C -50 -27.6 -27.6 -50 0 -50 z" stroke-linecap="round" />
</g>
<g transform="matrix(0.16 0 0 0.08 71.35 39.04)" id="DJKpKRIV5_tWE1gYExy1x"  >
<path style="stroke: rgb(87,204,153); stroke-width: 1; stroke-dasharray: none; stroke-linecap: butt; stroke-dashoffset: 0; stroke-linejoin: miter; stroke-miterlimit: 4; fill: rgb(87,204,153); fill-rule: nonzero; opacity: 1;" vector-effect="non-scaling-stroke"  transform=" translate(0, 0)" d="M -50 40.65708 C -50 -9.411450000000002 -29.52282 -49.99999999999999 -4.262929999999997 -49.99999999999999 L 7.926930000000002 -49.99999999999999 L 7.926930000000002 -49.99999999999999 C 31.16325 -49.99999999999999 50.00001 -12.66297999999999 50.00001 33.394560000000006 L 50.00001 42.737480000000005 L 50.00001 42.737480000000005 C 50.00001 46.74846000000001 48.359590000000004 50.00000000000001 46.336020000000005 50.00000000000001 L -49.99999 50.00000000000001 z" stroke-linecap="round" />
</g>
<g transform="matrix(0.1 0 0 0.1 37.44 61.07)" id="djuxDTCCNkgjcq2VXlmU4"  >
<path style="stroke: rgb(128,237,153); stroke-width: 1; stroke-dasharray: none; stroke-linecap: butt; stroke-dashoffset: 0; stroke-linejoin: miter; stroke-miterlimit: 4; fill: rgb(128,237,153); fill-rule: nonzero; opacity: 1;" vector-effect="non-scaling-stroke"  transform=" translate(0, 0)" d="M 0 -50 C 27.6 -50 50 -27.6 50 0 C 50 27.6 27.6 50 0 50 C -27.6 50 -50 27.6 -50 0 C -50 -27.6 -27.6 -50 0 -50 z" stroke-linecap="round" />
</g>
<g transform="matrix(0.16 0 0 0.08 37.74 39.05)" id="j1Bg2VBr_9eLkfce0DiS3"  >
<path style="stroke: rgb(34,87,122); stroke-width: 1; stroke-dasharray: none; stroke-linecap: butt; stroke-dashoffset: 0; stroke-linejoin: miter; stroke-miterlimit: 4; fill: rgb(34,87,122); fill-rule: nonzero; opacity: 1;" vector-effect="non-scaling-stroke"  transform=" translate(0, 0)" d="M -50 40.65708 C -50 -9.411450000000002 -29.52282 -49.99999999999999 -4.262929999999997 -49.99999999999999 L 7.926930000000002 -49.99999999999999 L 7.926930000000002 -49.99999999999999 C 31.16325 -49.99999999999999 50.00001 -12.66297999999999 50.00001 33.394560000000006 L 50.00001 42.737480000000005 L 50.00001 42.737480000000005 C 50.00001 46.74846000000001 48.359590000000004 50.00000000000001 46.336020000000005 50.00000000000001 L -49.99999 50.00000000000001 z" stroke-linecap="round" />
</g>
<g transform="matrix(0.16 0 0 0.08 37.44 72.07)" id="TBJyPGzGU3_lPl8SLcnzQ"  >
<path style="stroke: rgb(128,237,153); stroke-width: 1; stroke-dasharray: none; stroke-linecap: butt; stroke-dashoffset: 0; stroke-linejoin: miter; stroke-miterlimit: 4; fill: rgb(128,237,153); fill-rule: nonzero; opacity: 1;" vector-effect="non-scaling-stroke"  transform=" translate(0, 0)" d="M -50 40.65708 C -50 -9.411450000000002 -29.52282 -49.99999999999999 -4.262929999999997 -49.99999999999999 L 7.926930000000002 -49.99999999999999 L 7.926930000000002 -49.99999999999999 C 31.16325 -49.99999999999999 50.00001 -12.66297999999999 50.00001 33.394560000000006 L 50.00001 42.737480000000005 L 50.00001 42.737480000000005 C 50.00001 46.74846000000001 48.359590000000004 50.00000000000001 46.336020000000005 50.00000000000001 L -49.99999 50.00000000000001 z" stroke-linecap="round" />
</g>
<g transform="matrix(1.19 0 0 1.14 73.24 67.57)" id="T1mFsSPA_--bjyaTtJi01"  >
<path style="stroke: rgb(255,255,255); stroke-width: 1; stroke-dasharray: none; stroke-linecap: butt; stroke-dashoffset: 0; stroke-linejoin: miter; stroke-miterlimit: 4; fill: rgb(255,255,255); fill-rule: nonzero; opacity: 1;" vector-effect="non-scaling-stroke"  transform=" translate(0, 0)" d="M -13.61386 -13.61386 L 13.61386 -13.61386 L 13.61386 13.61386 L -13.61386 13.61386 z" stroke-linecap="round" />
</g>
<g transform="matrix(0.1 0 0 0.1 71.35 61.07)" id="NND9LJUQHdd5YhxwBvW-p"  >
<path style="stroke: rgb(56,163,165); stroke-width: 1; stroke-dasharray: none; stroke-linecap: butt; stroke-dashoffset: 0; stroke-linejoin: miter; stroke-miterlimit: 4; fill: rgb(56,163,165); fill-rule: nonzero; opacity: 1;" vector-effect="non-scaling-stroke"  transform=" translate(0, 0)" d="M 0 -50 C 27.6 -50 50 -27.6 50 0 C 50 27.6 27.6 50 0 50 C -27.6 50 -50 27.6 -50 0 C -50 -27.6 -27.6 -50 0 -50 z" stroke-linecap="round" />
</g>
<g transform="matrix(0.16 0 0 0.08 71.35 72.07)" id="fJ2A40ALgUyxxIEebKCMu"  >
<path style="stroke: rgb(56,163,165); stroke-width: 1; stroke-dasharray: none; stroke-linecap: butt; stroke-dashoffset: 0; stroke-linejoin: miter; stroke-miterlimit: 4; fill: rgb(56,163,165); fill-rule: nonzero; opacity: 1;" vector-effect="non-scaling-stroke"  transform=" translate(0, 0)" d="M -50 40.65708 C -50 -9.411450000000002 -29.52282 -49.99999999999999 -4.262929999999997 -49.99999999999999 L 7.926930000000002 -49.99999999999999 L 7.926930000000002 -49.99999999999999 C 31.16325 -49.99999999999999 50.00001 -12.66297999999999 50.00001 33.394560000000006 L 50.00001 42.737480000000005 L 50.00001 42.737480000000005 C 50.00001 46.74846000000001 48.359590000000004 50.00000000000001 46.336020000000005 50.00000000000001 L -49.99999 50.00000000000001 z" stroke-linecap="round" />
</g>
<g transform="matrix(1.61 0 0 1.61 116.4 31.94)" style="" id="0BV6QHvxyW65Ewy2lhVZS"  >
		<text xml:space="preserve" font-family="Bungee" font-size="20" font-style="normal" font-weight="normal" line-height="1" style="stroke: none; stroke-width: 1; stroke-dasharray: none; stroke-linecap: butt; stroke-dashoffset: 0; stroke-linejoin: miter; stroke-miterlimit: 4; fill: rgb(252,134,29); fill-rule: nonzero; opacity: 1; white-space: pre;" ><tspan x="-7.43" y="6.28" >R</tspan></text>
</g>
<g transform="matrix(1.61 0 0 1.61 121.37 67.62)" style="" id="Qc1wH-3ejLi3NiRqaUKCK"  >
		<text xml:space="preserve" font-family="Bungee" font-size="20" font-style="normal" font-weight="normal" line-height="1" style="stroke: none; stroke-width: 1; stroke-dasharray: none; stroke-linecap: butt; stroke-dashoffset: 0; stroke-linejoin: miter; stroke-miterlimit: 4; fill: rgb(252,134,29); fill-rule: nonzero; opacity: 1; white-space: pre;" ><tspan x="-7.59" y="6.28" >H</tspan></text>
</g>
</svg>